<?xml version="1.0" encoding="UTF-8" standalone="no"?>
<svg
   xmlns:dc="http://purl.org/dc/elements/1.1/"
   xmlns:cc="http://creativecommons.org/ns#"
   xmlns:rdf="http://www.w3.org/1999/02/22-rdf-syntax-ns#"
   xmlns:svg="http://www.w3.org/2000/svg"
   xmlns="http://www.w3.org/2000/svg"
   height="47833.426"
   width="47833.426"
   id="svg2"
   y="0px"
   x="0px"
   viewBox="0 0 47833.426 47833.426"
   style="clip-rule:evenodd;fill-rule:evenodd;image-rendering:optimizeQuality;shape-rendering:geometricPrecision;text-rendering:geometricPrecision"
   version="1.1"
   xml:space="preserve"><metadata
     id="metadata50"><rdf:RDF><cc:Work
         rdf:about=""><dc:format>image/svg+xml</dc:format><dc:type
           rdf:resource="http://purl.org/dc/dcmitype/StillImage" /><dc:title></dc:title></cc:Work></rdf:RDF></metadata><defs
     id="defs4"><style
       id="style6"
       type="text/css">
   
    .fil0 {fill:black}
    .fil1 {fill:black}
    .fil2 {fill:black;fill-rule:nonzero}
   
  </style></defs><g
     transform="translate(-1083.2423,-1083.3684)"
     id="g8"><path
       style="fill:#000000"
       id="path10"
       d="M 22879,46037 C 21540,45866 18161,43504 17032,42543 13726,39729 11042,35717 9376,31460 8118,28246 8009,26915 7984,23530 l 1,-14075 c 5,-2191 -292,-2346 1365,-3289 3859,-2196 10596,-2986 15704,-2959 5382,29 11637,715 15726,3015 1608,905 1285,1246 1273,3391 l -2,13996 c 30,3446 -331,5079 -1439,7966 -2006,5225 -5620,9990 -10367,12962 -499,312 -2516,1453 -3101,1498 585,-2047 916,-3840 611,-6650 l -5495,-1 c -196,2239 77,5071 619,6653 z M 5871,26140 c 427,5813 4698,13181 7963,16279 457,432 843,912 1354,1335 2311,1912 3621,2907 6580,4173 570,243 1350,531 1989,702 1145,306 1010,420 2204,81 5192,-1477 9552,-4853 12561,-9022 1455,-2017 2816,-4226 3883,-6873 1254,-3109 1787,-5217 1778,-8969 l 1,-16214 C 44151,698 17782,-1267 8255,4358 5453,6013 5832,7365 5856,10008 l -2,10754 c 18,1714 -106,3705 17,5378 z"
       class="fil0" /><path
       style="fill:#000000"
       id="path12"
       d="m 10219,26219 c 205,305 409,712 625,1058 3019,5936 6736,8450 13725,5513 193,-80 366,-125 520,-114 131,9 250,32 360,80 5061,2193 10600,2028 13769,-5525 217,-363 455,-675 598,-1010 -579,436 -1406,-191 -1744,392 -1658,2864 -5987,7466 -11137,2523 -808,-776 -430,-897 -1960,-889 -831,5 -922,-110 -1280,224 -3336,3947 -8765,2540 -11708,-1878 -408,-613 -1170,-142 -1768,-374 z"
       class="fil0" /><path
       style="fill:#000000"
       id="path14"
       d="m 10750,12425 c 1243,-394 1632,-718 3451,-1061 4275,-807 5456,1423 6507,2128 1019,683 3181,61 2653,-989 -210,-416 -1823,-1432 -2389,-1722 -3499,-1797 -8231,-713 -10222,1644 z"
       class="fil0" /><path
       style="fill:#000000"
       id="path16"
       d="m 39475,12423 c -979,-1298 -3559,-2554 -6310,-2534 -1604,12 -2943,397 -3863,871 -502,259 -2213,1316 -2428,1745 -508,1013 1507,1657 2614,1016 820,-475 2091,-2954 6486,-2171 1784,317 2585,820 3501,1073 z"
       class="fil0" /><path
       style="fill:#000000"
       id="path18"
       d="m 11769,17187 c 1343,1821 6356,2356 8430,0 -1797,-2181 -6913,-1974 -8430,0 z"
       class="fil0" /><path
       style="fill:#000000"
       id="path20"
       d="m 30034,17187 c 1846,2255 7048,1906 8431,0 -1445,-1912 -6537,-2241 -8431,0 z"
       class="fil0" /><path
       style="fill:#000000"
       id="path22"
       d="m 24065,27090 c -470,198 -2423,982 -3094,302 -1263,-1281 1766,-2239 3094,-302 z"
       class="fil1" /><path
       style="fill:#000000"
       id="path24"
       d="m 26200,27090 c 469,198 2422,982 3093,302 1263,-1281 -1765,-2239 -3093,-302 z"
       class="fil1" /><path
       style="fill:#000000"
       id="path26"
       d="m 41231,25759 c -2227,1964 -7607,1885 -10244,-1905 3935,2609 6972,2493 10244,1905 z"
       class="fil1" /><circle
       style="fill:#000000"
       id="circle28"
       r="497"
       cy="18554"
       cx="40189"
       class="fil1" /><circle
       style="fill:#000000"
       id="circle30"
       r="497"
       cy="18554"
       cx="10099"
       class="fil1" /><path
       style="fill:#000000"
       id="path32"
       d="M 17481,40905 C 12038,36984 8476,29913 7846,27078 c -373,-1683 -43,-6168 -11,-4581 51,2482 2008,7622 3866,11030 2424,4448 5922,7480 5780,7378 z"
       class="fil1" /><path
       style="fill:#000000;fill-rule:nonzero"
       id="path34"
       d="M 17475,40913 C 15177,39258 13214,37041 11665,34819 9544,31775 8200,28719 7836,27080 c -229,-1033 -193,-3118 -124,-4212 16,-251 34,-450 50,-572 22,-158 44,-206 64,-111 9,43 16,144 19,312 25,1175 477,2948 1143,4850 740,2111 1745,4383 2722,6175 2163,3969 5180,6810 5703,7302 35,33 65,61 88,83 26,19 24,18 9,9 62,60 65,69 -35,-3 z m -5793,-6106 c 1522,2185 3445,4364 5694,6009 -585,-551 -3550,-3369 -5684,-7284 -977,-1793 -1982,-4066 -2723,-6179 -667,-1904 -1119,-3678 -1144,-4856 -3,-166 -10,-266 -18,-308 -4,-18 -13,23 -25,109 -17,122 -34,320 -50,571 -69,1093 -105,3176 124,4206 363,1638 1706,4691 3826,7732 z m 20947,6009 c 2248,-1645 4171,-3824 5694,-6009 2119,-3041 3462,-6094 3826,-7732 228,-1030 193,-3113 124,-4206 -16,-251 -34,-449 -50,-571 -12,-86 -21,-127 -25,-109 -9,42 -15,142 -19,308 -24,1178 -477,2952 -1144,4856 -740,2113 -1745,4386 -2722,6179 -2135,3915 -5100,6733 -5684,7284 z m 5710,-5997 c -1548,2222 -3511,4439 -5809,6094 -100,72 -97,63 -36,3 -14,9 -16,10 10,-9 23,-22 53,-50 87,-83 523,-492 3541,-3333 5704,-7302 977,-1792 1981,-4064 2721,-6175 667,-1902 1119,-3675 1143,-4850 4,-168 10,-269 19,-312 20,-95 43,-47 64,111 17,122 35,321 51,572 69,1094 104,3179 -125,4212 -364,1639 -1708,4695 -3829,7739 z"
       class="fil2" /><path
       style="fill:#000000"
       id="path36"
       d="m 8823,25823 c 2228,1964 7608,1885 10245,-1905 -3936,2609 -6973,2493 -10245,1905 z"
       class="fil1" /><path
       style="fill:#000000"
       id="path38"
       d="m 32524,40905 c 5443,-3921 9005,-10992 9635,-13827 373,-1683 43,-6168 10,-4581 -51,2482 -2008,7622 -3865,11030 -2425,4448 -5922,7480 -5780,7378 z"
       class="fil1" /><path
       style="fill:#000000"
       id="path40"
       d="m 31596,35176 -13192,0 c 2520,-1175 9385,-1393 13192,0 z"
       class="fil1" /><rect
       style="fill:#000000"
       id="rect42"
       ry="500"
       rx="268"
       height="494"
       width="2944"
       y="35800"
       x="23530"
       class="fil1" /></g><text
     style="font-weight:bold;font-size:5px;font-family:'Helvetica Neue', Helvetica, Arial-Unicode, Arial, Sans-serif;fill:#000000"
     id="text44"
     font-weight="bold"
     font-size="5px"
     y="48931.633"
     x="-5815.9102">Created by Oleksandr Panasovskyi</text>
<text
     style="font-weight:bold;font-size:5px;font-family:'Helvetica Neue', Helvetica, Arial-Unicode, Arial, Sans-serif;fill:#000000"
     id="text46"
     font-weight="bold"
     font-size="5px"
     y="48936.633"
     x="-5815.9102">from the Noun Project</text>
</svg>