<?xml version="1.0" encoding="UTF-8" standalone="no"?>
<svg
   xmlns:dc="http://purl.org/dc/elements/1.1/"
   xmlns:cc="http://creativecommons.org/ns#"
   xmlns:rdf="http://www.w3.org/1999/02/22-rdf-syntax-ns#"
   xmlns:svg="http://www.w3.org/2000/svg"
   xmlns="http://www.w3.org/2000/svg"
   xmlns:sodipodi="http://sodipodi.sourceforge.net/DTD/sodipodi-0.dtd"
   xmlns:inkscape="http://www.inkscape.org/namespaces/inkscape"
   version="1.1"
   x="0px"
   y="0px"
   viewBox="0 0 100 100"
   enable-background="new 0 0 65.18 100"
   xml:space="preserve"
   id="svg2"
   inkscape:version="0.91 r13725"
   sodipodi:docname="protest.svg"
   width="100"
   height="100"><metadata
     id="metadata24"><rdf:RDF><cc:Work
         rdf:about=""><dc:format>image/svg+xml</dc:format><dc:type
           rdf:resource="http://purl.org/dc/dcmitype/StillImage" /><dc:title></dc:title></cc:Work></rdf:RDF></metadata><defs
     id="defs22" /><sodipodi:namedview
     pagecolor="#ffffff"
     bordercolor="#666666"
     borderopacity="1"
     objecttolerance="10"
     gridtolerance="10"
     guidetolerance="10"
     inkscape:pageopacity="0"
     inkscape:pageshadow="2"
     inkscape:window-width="1440"
     inkscape:window-height="837"
     id="namedview20"
     showgrid="false"
     inkscape:zoom="2.36"
     inkscape:cx="32.59"
     inkscape:cy="50"
     inkscape:window-x="0"
     inkscape:window-y="30"
     inkscape:window-maximized="1"
     inkscape:current-layer="svg2" /><path
     d="m 52.888875,39.365 c -0.168,0.449 -0.277,0.91 -0.324,1.379 -0.053,0.518 -0.039,1.039 0.057,1.555 0.058,0.309 0.131,0.617 0.241,0.918 0.515,1.392 1.539,2.499 2.888,3.119 0.734,0.338 1.514,0.508 2.315,0.508 0.996,0 1.949,-0.279 2.781,-0.764 0.45,-0.262 0.863,-0.584 1.227,-0.964 0.325,-0.339 0.606,-0.725 0.839,-1.145 0.067,-0.121 0.143,-0.237 0.201,-0.365 0,0 11.078,-24.098 11.102,-24.147 0.023,-0.052 0.334,-0.974 0.4,-1.345 0.435,-2.428 -0.783,-4.941 -3.127,-6.02 -0.732,-0.338 -1.512,-0.508 -2.313,-0.508 -1.688,0 -3.258,0.78 -4.3,2.052 -0.293,0.359 -0.551,0.75 -0.748,1.183 10e-4,-0.004 0.002,-0.008 0.004,-0.011 l -0.006,0.012 c -10e-4,0.001 -0.002,0.004 -0.004,0.006 l -11.096,24.142 c -0.058,0.129 -0.089,0.263 -0.137,0.395 z"
     id="path4"
     inkscape:connector-curvature="0" /><path
     d="m 57.885875,12.83 c 0.235,0.236 0.388,0.544 0.5,0.881 0.263,0.799 0.219,1.822 0.001,2.859 -0.112,0.529 -0.262,1.054 -0.442,1.551 -0.068,0.191 -0.137,0.384 -0.214,0.564 -0.113,0.275 -0.262,0.595 -0.434,0.933 -1.504,2.975 -5.374,7.975 -14.463,8.285 -0.005,0 -0.012,0.001 -0.017,0.001 l -3.787,7.886 c 2.366,0.559 6.577,1.881 10.227,4.73 l 12.345,-26.859 c 0.202,-0.438 0.32,-0.889 0.401,-1.344 0.432,-2.431 -0.783,-4.945 -3.127,-6.022 -0.734,-0.336 -1.514,-0.508 -2.313,-0.508 -1.688,0 -3.257,0.779 -4.298,2.052 -0.296,0.359 -0.554,0.751 -0.754,1.184 0.002,-0.004 0.002,-0.006 0.006,-0.01 l -0.006,0.01 -0.003,0.007 -1.56,3.395 7.532,0 0.406,0.405 z"
     id="path6"
     inkscape:connector-curvature="0" /><path
     d="m 43.270875,12.424 1.352,0 2.268,0 2.087,-4.549 c 0.2,-0.438 0.319,-0.89 0.399,-1.344 0.433,-2.429 -0.782,-4.943 -3.126,-6.021 -0.736,-0.336 -1.514,-0.51 -2.314,-0.51 -1.688,0 -3.258,0.781 -4.299,2.053 -0.293,0.359 -0.552,0.751 -0.751,1.185 0,0.002 -0.004,0.004 -0.004,0.006 l -4.213,9.18 4.614,0 3.987,0 z"
     id="path8"
     inkscape:connector-curvature="0" /><polygon
     points="31.578,7.861 31.581,7.854 31.578,7.861 31.573,7.874 "
     id="polygon10"
     transform="translate(17.409875,0)" /><polygon
     points="55.55,28.84 55.55,28.841 55.551,28.84 "
     id="polygon12"
     transform="translate(17.409875,0)" /><polygon
     points="44.952,45.248 44.95,45.249 44.949,45.252 "
     id="polygon14"
     transform="translate(17.409875,0)" /><polygon
     points="44.952,45.245 44.952,45.246 44.954,45.241 "
     id="polygon16"
     transform="translate(17.409875,0)" /><path
     d="m 82.589875,33.276 c 0,-0.624 -0.348,-1.915 -0.362,-1.927 -0.785,-2.115 -2.805,-3.628 -5.191,-3.628 -0.501,0 -0.979,0.088 -1.441,0.213 -0.803,0.216 -1.528,0.607 -2.145,1.131 -0.724,0.617 -1.282,1.405 -1.615,2.315 -0.004,0.012 -0.006,0.026 -0.012,0.038 l -6.939,14.99 0.002,0 c -0.205,0.447 -0.308,0.913 -0.332,1.377 -0.008,0.166 0,0.33 0.013,0.492 0.106,1.305 0.888,2.518 2.16,3.103 0.604,0.279 1.255,0.362 1.89,0.297 0.828,-0.086 1.627,-0.432 2.242,-0.996 0.295,-0.271 0.539,-0.6 0.731,-0.962 l 3.605,-7.787 2.521,1.163 0.25,-0.543 -3.742,8.143 -0.006,0.012 c -0.062,0.135 -0.137,0.259 -0.211,0.386 -0.155,0.278 -0.327,0.548 -0.518,0.799 -0.391,0.519 -0.86,0.967 -1.379,1.343 -1.006,0.733 -2.213,1.183 -3.494,1.247 -0.111,0.007 -0.218,0.021 -0.327,0.021 l -10e-4,0 c -0.943,0 -1.859,-0.202 -2.723,-0.598 -1.292,-0.596 -2.284,-1.566 -2.936,-2.72 -0.314,-0.557 -0.537,-1.157 -0.678,-1.781 -0.053,-0.233 -0.096,-0.466 -0.123,-0.705 -0.43,0.22 -0.872,0.412 -1.337,0.555 -0.776,0.238 -1.593,0.368 -2.425,0.368 0,0 0,0 -0.001,0 -0.965,0 -1.61,-0.172 -2.511,-0.497 0.512,1.676 0.831,3.528 0.831,5.63 l 0,10.526 -2.777,0 0,-10.526 c 0,-2.521 -0.788,-4.656 -1.598,-6.478 -3.794,-8.545 -14.629,-10.023 -15.182,-10.092 l -1.914,-0.24 6.146,-12.802 0.875,0 c 0.232,0 0.43,-0.029 0.652,-0.035 0.538,-0.016 1.074,-0.033 1.568,-0.084 5.297,-0.549 8.203,-3.018 9.739,-5.135 0.133,-0.183 0.249,-0.367 0.366,-0.548 0.272,-0.426 0.499,-0.842 0.69,-1.248 0.219,-0.463 0.389,-0.906 0.517,-1.313 0.195,-0.628 0.298,-1.174 0.328,-1.578 l -22.978,0 c -2.75,0 -5.154,1.458 -6.5,3.64 -0.314,0.51 -0.572,1.056 -0.762,1.635 l -7.218,15.48 -0.371,0.796 c -0.356,0.882 -0.557,1.844 -0.557,2.855 0,1.382 0.373,2.675 1.014,3.794 l 0.781,1.12 17.738,23.491 0,31.984 33.331,0 0,0.003 2.777,0 0.002,-23.609 8.821,-17.957 c 0.124,-0.223 0.243,-0.446 0.337,-0.687 0.232,-0.594 0.367,-1.235 0.378,-1.908 0.002,-0.034 0.001,-22.563 0.001,-22.563 z"
     id="path18"
     inkscape:connector-curvature="0" /></svg>