<?xml version="1.0" encoding="UTF-8" standalone="no"?>
<svg
   xmlns:dc="http://purl.org/dc/elements/1.1/"
   xmlns:cc="http://creativecommons.org/ns#"
   xmlns:rdf="http://www.w3.org/1999/02/22-rdf-syntax-ns#"
   xmlns:svg="http://www.w3.org/2000/svg"
   xmlns="http://www.w3.org/2000/svg"
   viewBox="0 0 616.125 535.125"
   height="535.125"
   width="616.125"
   xml:space="preserve"
   version="1.1"
   id="svg2"><metadata
     id="metadata8"><rdf:RDF><cc:Work
         rdf:about=""><dc:format>image/svg+xml</dc:format><dc:type
           rdf:resource="http://purl.org/dc/dcmitype/StillImage" /><dc:title></dc:title></cc:Work></rdf:RDF></metadata><defs
     id="defs6"><clipPath
       id="clipPath16"
       clipPathUnits="userSpaceOnUse"><path
         style="clip-rule:evenodd"
         id="path18"
         d="m 0,0.1 595.2,0 0,841.8 L 0,841.9 0,0.1 Z" /></clipPath></defs><g
     transform="matrix(1.25,0,0,-1.25,-64,947.625)"
     id="g10"><g
       id="g12"><g
         clip-path="url(#clipPath16)"
         id="g14"><path
           id="path22"
           style="fill:#000000;fill-opacity:1;fill-rule:evenodd;stroke:none"
           d="m 105.4,624.7 0,0 c 0,-17 3.8,-31.4 12.3,-46.1 8.5,-14.7 19.1,-25.3 33.8,-33.8 14.7,-8.5 29.2,-12.4 46.1,-12.4 17,0 31.5,3.9 46.2,12.4 14.7,8.5 25.3,19.1 33.8,33.8 8.5,14.7 12.3,29.1 12.3,46.1 0,17 -3.8,31.4 -12.3,46.1 -8.5,14.8 -19.1,25.3 -33.8,33.8 -14.7,8.5 -29.2,12.4 -46.2,12.4 -16.9,0 -31.4,-3.9 -46.1,-12.4 -14.7,-8.5 -25.3,-19 -33.8,-33.8 -8.5,-14.7 -12.3,-29.1 -12.3,-46.1 z" /><path
           id="path24"
           style="fill:#000000;fill-opacity:1;fill-rule:evenodd;stroke:none"
           d="m 416.1,565.2 -36.9,0 c -0.2,0 -0.4,0 -0.6,0 -23.3,0 -43.2,-5.3 -63.4,-17 -17.3,-10 -30.1,-21.8 -41.4,-38.4 l 0,0 c -18.6,9.4 -36.3,13.7 -57.1,13.7 l -37.5,0 0,0 c -23.6,0 -43.6,-5.4 -64,-17.1 C 94.8,494.6 80.1,479.9 68.3,459.5 56.6,439.1 51.2,419.1 51.2,395.5 l 0,-47.6 c 0,-3.3 0.7,-6.1 2.4,-8.9 1.6,-2.9 3.7,-4.9 6.5,-6.6 2.9,-1.6 5.7,-2.4 9,-2.4 l 257.1,0 c 3.3,0 6.1,0.8 9,2.4 2.8,1.7 4.8,3.7 6.5,6.6 1.6,2.8 2.4,5.6 2.4,8.9 l 0,23.8 182.2,0 c 3.2,0 6,0.8 8.9,2.4 2.8,1.7 4.9,3.7 6.5,6.5 1.7,2.9 2.4,5.7 2.4,9 l 0,47.6 c 0,23.6 -5.3,43.6 -17.1,64 -11.8,20.4 -26.5,35.1 -46.9,46.8 -20.4,11.8 -40.4,17.2 -64,17.2 z" /><path
           id="path26"
           style="fill:#000000;fill-opacity:1;fill-rule:evenodd;stroke:none"
           d="m 305.4,666.4 0,0 c 0,-0.2 0,-0.4 0,-0.6 0,-17 3.8,-31.4 12.3,-46.1 8.5,-14.8 19.1,-25.3 33.8,-33.8 14.7,-8.5 29.2,-12.4 46.1,-12.4 17.1,0 31.5,3.9 46.2,12.4 14.7,8.5 25.3,19 33.8,33.8 8.5,14.7 12.3,29.1 12.3,46.1 0,17 -3.8,31.4 -12.3,46.1 -8.5,14.7 -19.1,25.3 -33.8,33.8 -14.7,8.5 -29.1,12.4 -46.1,12.4 l -0.1,0 c -16.9,0 -31.4,-3.9 -46.1,-12.4 -14.7,-8.5 -25.3,-19.1 -33.8,-33.8 -8.4,-14.5 -12.2,-28.8 -12.3,-45.5 z" /></g></g></g></svg>