<?xml version="1.0" encoding="UTF-8" standalone="no"?>
<svg
   xmlns:dc="http://purl.org/dc/elements/1.1/"
   xmlns:cc="http://creativecommons.org/ns#"
   xmlns:rdf="http://www.w3.org/1999/02/22-rdf-syntax-ns#"
   xmlns:svg="http://www.w3.org/2000/svg"
   xmlns="http://www.w3.org/2000/svg"
   viewBox="0 0 655.375 421"
   height="421"
   width="655.375"
   xml:space="preserve"
   version="1.1"
   id="svg2"><metadata
     id="metadata8"><rdf:RDF><cc:Work
         rdf:about=""><dc:format>image/svg+xml</dc:format><dc:type
           rdf:resource="http://purl.org/dc/dcmitype/StillImage" /><dc:title></dc:title></cc:Work></rdf:RDF></metadata><defs
     id="defs6"><clipPath
       id="clipPath16"
       clipPathUnits="userSpaceOnUse"><path
         style="clip-rule:evenodd"
         id="path18"
         d="m 0,0.1 595.2,0 0,841.8 L 0,841.9 0,0.1 Z" /></clipPath></defs><g
     transform="matrix(1.25,0,0,-1.25,-44.375,891)"
     id="g10"><g
       id="g12"><g
         clip-path="url(#clipPath16)"
         id="g14"><path
           id="path22"
           style="fill:#000000;fill-opacity:1;fill-rule:evenodd;stroke:none"
           d="m 420.2,573.1 c 0,-6.2 -1.5,-11.5 -4.6,-16.9 -3.1,-5.3 -6.9,-9.2 -12.3,-12.3 -5.4,-3.1 -10.6,-4.5 -16.9,-4.5 -6.2,0 -11.4,1.4 -16.8,4.5 -5.4,3.1 -9.2,7 -12.3,12.3 -3.1,5.4 -4.6,10.7 -4.6,16.9 0,6.2 1.5,11.5 4.6,16.8 3.1,5.4 6.9,9.3 12.3,12.4 5.4,3.1 10.6,4.5 16.8,4.5 6.3,0 11.5,-1.4 16.9,-4.5 5.4,-3.1 9.2,-7 12.3,-12.4 3.1,-5.3 4.6,-10.6 4.6,-16.8 z" /><path
           id="path24"
           style="fill:#000000;fill-opacity:1;fill-rule:evenodd;stroke:none"
           d="m 517.9,695.1 -60.5,0 c -23.2,0 -41.9,-18.8 -41.9,-41.9 l 0,-22.7 c 0,-21.9 16.8,-39.9 38.2,-41.7 l -9,-33.6 51,33.4 22.2,0 c 23.1,0 41.9,18.7 41.9,41.9 l 0,22.7 c 0,23.1 -18.8,41.9 -41.9,41.9 z m -61.7,-63.8 c -6.4,0 -11.6,5.1 -11.6,11.5 0,6.4 5.2,11.5 11.6,11.5 6.3,0 11.5,-5.1 11.5,-11.5 0,-6.4 -5.2,-11.5 -11.5,-11.5 z m 31.4,0 c -6.3,0 -11.5,5.1 -11.5,11.5 0,6.4 5.1,11.5 11.5,11.5 6.4,0 11.6,-5.1 11.6,-11.5 0,-6.4 -5.2,-11.5 -11.6,-11.5 z m 31.5,0 c -6.4,0 -11.6,5.1 -11.6,11.5 0,6.4 5.2,11.5 11.6,11.5 6.3,0 11.5,-5.1 11.5,-11.5 0,-6.4 -5.1,-11.5 -11.5,-11.5 z" /><path
           id="path26"
           style="fill:#000000;fill-opacity:1;fill-rule:evenodd;stroke:none"
           d="m 331,412.2 c -23.6,0 -43.6,-15.2 -50.9,-36.2 l 101.8,0 c -7.4,21 -27.3,36.2 -50.9,36.2 z" /><path
           id="path28"
           style="fill:#000000;fill-opacity:1;fill-rule:evenodd;stroke:none"
           d="m 364.7,454.2 c 0,-6.2 -1.4,-11.4 -4.5,-16.8 -3.1,-5.4 -7,-9.2 -12.4,-12.3 -5.3,-3.1 -10.6,-4.6 -16.8,-4.6 -6.2,0 -11.5,1.5 -16.9,4.6 -5.4,3.1 -9.2,6.9 -12.3,12.3 -3.1,5.4 -4.5,10.6 -4.5,16.8 0,6.3 1.4,11.5 4.5,16.9 3.1,5.4 6.9,9.2 12.3,12.3 5.4,3.1 10.7,4.6 16.9,4.6 6.2,0 11.5,-1.5 16.8,-4.6 5.4,-3.1 9.3,-6.9 12.4,-12.3 3.1,-5.4 4.5,-10.6 4.5,-16.9 z" /><path
           id="path30"
           style="fill:#000000;fill-opacity:1;fill-rule:evenodd;stroke:none"
           d="m 217.4,412.2 c -23.6,0 -43.6,-15.2 -50.9,-36.2 l 101.8,0 c -7.3,21 -27.3,36.2 -50.9,36.2 z" /><path
           id="path32"
           style="fill:#000000;fill-opacity:1;fill-rule:evenodd;stroke:none"
           d="m 251.1,454.2 c 0,-6.2 -1.4,-11.4 -4.5,-16.8 -3.1,-5.4 -7,-9.2 -12.3,-12.3 -5.4,-3.1 -10.7,-4.6 -16.9,-4.6 -6.2,0 -11.5,1.5 -16.8,4.6 -5.4,3.1 -9.3,6.9 -12.4,12.3 -3.1,5.4 -4.5,10.6 -4.5,16.8 0,6.3 1.4,11.5 4.5,16.9 3.1,5.4 7,9.2 12.4,12.3 5.3,3.1 10.6,4.6 16.8,4.6 6.2,0 11.5,-1.5 16.9,-4.6 5.3,-3.1 9.2,-6.9 12.3,-12.3 3.1,-5.4 4.5,-10.6 4.5,-16.9 z" /><path
           id="path34"
           style="fill:#000000;fill-opacity:1;fill-rule:evenodd;stroke:none"
           d="m 137.5,454.2 c 0,-6.2 -1.4,-11.4 -4.5,-16.8 -3.1,-5.4 -7,-9.2 -12.3,-12.3 -5.4,-3.1 -10.7,-4.6 -16.9,-4.6 -6.2,0 -11.5,1.5 -16.8,4.6 -5.4,3.1 -9.3,6.9 -12.4,12.3 -3.1,5.4 -4.5,10.6 -4.5,16.8 0,6.3 1.4,11.5 4.5,16.9 3.1,5.4 7,9.2 12.4,12.3 5.3,3.1 10.6,4.6 16.8,4.6 6.2,0 11.5,-1.5 16.9,-4.6 5.3,-3.1 9.2,-6.9 12.3,-12.3 3.1,-5.4 4.5,-10.6 4.5,-16.9 z" /><path
           id="path36"
           style="fill:#000000;fill-opacity:1;fill-rule:evenodd;stroke:none"
           d="M 103.8,412.2 C 80.2,412.2 60.3,397 52.9,376 l 101.8,0 c -7.3,21 -27.3,36.2 -50.9,36.2 z" /><path
           id="path38"
           style="fill:#000000;fill-opacity:1;fill-rule:evenodd;stroke:none"
           d="m 386.4,531 c -23.5,0 -43.5,-15.2 -50.9,-36.3 19.9,-0.5 35.8,-16.3 36.4,-36.1 l 68.5,0 0,18.4 c 0,29.8 -24.1,54 -54,54 z" /><path
           id="path40"
           style="fill:#000000;fill-opacity:1;fill-rule:evenodd;stroke:none"
           d="m 59.5,458.5 -6.5,0 0,236.8 336.3,0 0,-78.4 17.4,0 0,95.9 -371.2,0 0,-271.8 24,0 0,17.5 z" /><path
           id="path42"
           style="fill:#000000;fill-opacity:1;fill-rule:evenodd;stroke:none"
           d="m 160.6,441.1 -16.6,0 0,17.5 33.2,0 0,-17.5 -16.6,0 z" /><path
           id="path44"
           style="fill:#000000;fill-opacity:1;fill-rule:evenodd;stroke:none"
           d="m 274.2,441.1 -16.6,0 0,17.5 33.1,0 0,-17.5 -16.5,0 z" /></g></g></g></svg>